<svg width="380" height="88" viewBox="0 0 380 88" fill="none" xmlns="http://www.w3.org/2000/svg">
<path fill-rule="evenodd" clip-rule="evenodd" d="M39.8145 67.7178L33.9594 77.194L45.4465 88L86.3762 79.6321L95.2982 70.2115L98.8669 50.2619L86.8781 37.9597L91.841 37.4054L104.834 22.9974L98.9785 16.7909L57.6027 21.9445L69.2571 5.20897L65.1865 0L17.9555 5.59684L6.74728 18.2317L5.96648 27.9848L19.7956 41.9495L9.81417 43.4942L0 61.0125L11.6543 72.262L39.8145 67.7178Z" fill="black"/>
<path fill-rule="evenodd" clip-rule="evenodd" d="M37.2221 76.3036L46.5344 61.4522L56.5158 60.1222L53.0028 65.7746L70.5123 63.17L75.3079 50.2582L54.0622 53.5831L49.2667 47.9861L55.8466 30.0869L52.8914 26.5403L54.5641 24.6008L97.0552 19.3362L88.0775 29.3112L64.3783 32.6359L60.4749 42.3893L84.0625 39.3968L90.0292 46.49L87.3526 61.3413L79.0997 70.2634L37.2221 76.3036Z" fill="#FFEEEE"/>
<path fill-rule="evenodd" clip-rule="evenodd" d="M27.5252 16.4426L54.9605 12.8074L63.704 2.65524L19.1833 7.75351L8.78911 19.3362L8.20927 27.1267L18.6926 37.7223L37.7411 34.8849L31.8526 48.4064L13.1609 51.2436L17.8002 44.4164L11.2427 45.3917L3.07909 59.7554L44.7449 53.5047L53.3992 30.5847L47.4214 23.4915L24.0011 26.6391L27.5252 16.4426Z" fill="#FFEEEE"/>
<path fill-rule="evenodd" clip-rule="evenodd" d="M86.1099 31.7456L82.5624 37.4275L71.2177 38.9182L74.6058 32.9779L86.1099 31.7456ZM71.7458 53.2058L66.7498 61.5424L57.9257 62.8647L63.0069 54.3072L71.7458 53.2058Z" fill="#33BBCC"/>
<path fill-rule="evenodd" clip-rule="evenodd" d="M48.7096 15.6783L44.7212 21.6525L32.6711 23.2308L36.2649 17.2904L48.7096 15.6783ZM33.782 37.5243L27.5868 47.1403L18.4101 48.3164L24.226 38.9181L33.782 37.5243Z" fill="#33BBCC"/>
<path fill-rule="evenodd" clip-rule="evenodd" d="M131.059 32.952L130.736 35.6685L135.057 35.61L131.265 40.5172L125.916 40.5755L122.683 35.7853L123.271 31.2053L127.238 27.2855L145.814 27.2271L141.493 32.9229L131.059 32.952ZM132.646 40.5755L136.497 35.5809H139.936L143.169 40.5755L142.463 44L137.202 49.1785H119.038L124.593 43.4942H133.675L133.94 40.5755H132.646Z" fill="#FFEEEE"/>
<path fill-rule="evenodd" clip-rule="evenodd" d="M265.341 33.0923L265.111 35.5283L268.48 35.6763L264.653 40.634L261.208 40.6924L257.552 35.902L258.257 30.9716L262.066 27.2271H280.236L274.905 32.9229L265.341 33.0923ZM265.63 40.578L269.073 35.6364L271.693 35.6172L276.029 40.4659L275.47 44.6572L270.76 49.1785H254.911L260.833 43.4942H266.866L267.241 40.5755L265.63 40.578Z" fill="#FFEEEE"/>
<path fill-rule="evenodd" clip-rule="evenodd" d="M365.427 33.1515L365.198 35.5877L369.118 35.6867L365.447 40.5991L360.239 40.6873L356.904 35.902L357.903 30.9716L361.771 27.2271H380L374.668 32.9229L365.427 33.1515ZM366.834 40.578L370.365 35.6364L374.044 35.6172L377.233 40.2907L376.616 44.073L371.347 49.1785H353.646L358.892 43.4942H367.629L368.239 40.5761L366.834 40.578Z" fill="#FFEEEE"/>
<path fill-rule="evenodd" clip-rule="evenodd" d="M139.997 49.1785H146.963L155.369 34.4394L157.338 44H152.194L149.079 49.1785H165.862L160.894 26.9618L151.695 27.2271L144.347 41.1282L144.082 44.3411L139.997 49.1785Z" fill="#FFEEEE"/>
<path fill-rule="evenodd" clip-rule="evenodd" d="M167.278 49.1785H170.217L171.834 39.636L174.42 49.1785H178.359L183.973 39.3731L182.415 49.1785H188.47L191.938 27.2271H183.238L177.889 36.8028L175.714 27.2271H167.602L165.338 40.3664L167.278 49.1785Z" fill="#FFEEEE"/>
<path fill-rule="evenodd" clip-rule="evenodd" d="M193.955 27.2271H200.303L197.776 43.4942H203.742L206.387 27.2271H212.912L209.826 46.1267L206.916 49.1785H190.516L193.955 27.2271Z" fill="#FFEEEE"/>
<path fill-rule="evenodd" clip-rule="evenodd" d="M213.746 34.5387H228.5L224.18 39.7086L219.036 39.6794L218.566 43.4942H228.177L227.207 49.1785H211.512L213.746 34.5387ZM213.834 32.5524L214.686 27.2271H230.734L229.999 32.64L213.834 32.5524Z" fill="#FFEEEE"/>
<path fill-rule="evenodd" clip-rule="evenodd" d="M232.704 27.2271H239.134L236.672 42.6568L247.841 42.8029L244.241 49.1785H229.361L234.835 43.1681L233.549 43.0586L229.471 46.8557L232.704 27.2271Z" fill="#FFEEEE"/>
<path fill-rule="evenodd" clip-rule="evenodd" d="M279.32 30.5648L282.729 27.2271H295.896L298.042 30.3312L295.632 45.3445L291.782 49.1785H278.996L276.851 46.0747L279.32 30.5648ZM285.169 33.0183L283.464 43.4942H289.607L291.282 32.9892L285.169 33.0183Z" fill="#FFEEEE"/>
<path fill-rule="evenodd" clip-rule="evenodd" d="M294.156 49.1785H299.997L307.859 34.7191L309.99 44.1025L304.7 44.212L302.165 49.1785H316.273L317.228 42.7515L313.26 27.2271H303.928L298.042 39.0275L297.242 46.0375L294.156 49.1785Z" fill="#FFEEEE"/>
<path fill-rule="evenodd" clip-rule="evenodd" d="M317.853 49.1785H323.878L325.017 42.5324L326.89 42.569L329.058 49.1785H336.7L334.055 41.9484L336.553 39.7577L337.986 30.3379L335.598 27.2271H318.661L322.261 33.0031L331.226 33.0397L330.675 36.6177L319.616 36.6907L317.853 49.1785Z" fill="#FFEEEE"/>
<path fill-rule="evenodd" clip-rule="evenodd" d="M354.336 34.5284L350.251 39.6691L344.872 39.5814L344.314 43.4942H354.542L354.366 46.6793L351.809 49.1785H339.405L337.466 46.2412L339.347 34.616L354.336 34.5284ZM341.404 32.6005L338.524 27.2271H358.316L356.206 30.5677L355.982 32.5422L341.404 32.6005Z" fill="#FFEEEE"/>
<path fill-rule="evenodd" clip-rule="evenodd" d="M180.903 60.6054V62.6623C180.903 62.7366 180.842 62.7972 180.767 62.7972H179.342C179.267 62.7972 179.206 62.7366 179.206 62.6623V56.6511C179.206 56.5765 179.267 56.5161 179.342 56.5161H180.767C180.77 56.5161 180.773 56.5161 180.776 56.5164C180.779 56.5161 180.782 56.5161 180.785 56.5161H185.884C185.96 56.5161 186.022 56.5773 186.022 56.6525V58.0665C186.022 58.1419 185.96 58.2031 185.884 58.2031H180.903V58.9184H184.981C185.056 58.9184 185.118 58.9796 185.118 59.0548V60.4689C185.118 60.5442 185.056 60.6054 184.981 60.6054H180.903Z" fill="#FFEEEE"/>
<path fill-rule="evenodd" clip-rule="evenodd" d="M197.635 60.835H195.889V62.6623C195.889 62.7366 195.829 62.7972 195.754 62.7972H194.328C194.253 62.7972 194.192 62.7366 194.192 62.6623V56.6511C194.192 56.5765 194.253 56.5161 194.328 56.5161H195.754C195.768 56.5161 195.781 56.5182 195.794 56.5221C195.807 56.5182 195.82 56.5161 195.834 56.5161H201.108C201.178 56.5161 201.235 56.5726 201.235 56.6424V60.6987C201.235 60.774 201.173 60.835 201.097 60.835H200.029L201.61 62.6155C201.66 62.6709 201.655 62.7564 201.599 62.8061L199.646 62.8192C199.539 62.8449 199.504 62.8422 199.454 62.7868L197.691 60.94C197.675 60.9223 197.654 60.8827 197.635 60.835ZM195.889 58.2031V59.1481H199.646V58.2031H195.889Z" fill="#FFEEEE"/>
<path fill-rule="evenodd" clip-rule="evenodd" d="M218.089 57.0115V62.2131C218.089 62.4866 217.866 62.7085 217.591 62.7085H211.191C210.916 62.7085 210.693 62.4866 210.693 62.2131V57.0115C210.693 56.7381 210.916 56.5162 211.191 56.5162H217.591C217.866 56.5162 218.089 56.7381 218.089 57.0115ZM216.49 57.9254H212.551V61.3809H216.49V57.9254Z" fill="#FFEEEE"/>
<path fill-rule="evenodd" clip-rule="evenodd" d="M287.832 59.2563V62.5696C287.832 62.6469 287.77 62.7085 287.693 62.7085H286.228C286.151 62.7085 286.089 62.6469 286.089 62.5696V56.6546C286.089 56.5781 286.151 56.5165 286.228 56.5165H287.693C287.744 56.5165 287.788 56.5436 287.813 56.5839L291.405 60.1742V56.6546C291.405 56.5781 291.468 56.5165 291.545 56.5165H293.009C293.086 56.5165 293.149 56.5781 293.149 56.6546V62.5696C293.149 62.6469 293.086 62.7085 293.009 62.7085H291.545C291.484 62.7085 291.432 62.6699 291.413 62.6156L287.832 59.2563Z" fill="#FFEEEE"/>
<path fill-rule="evenodd" clip-rule="evenodd" d="M245.26 58.2488H243.08C243.003 58.2488 242.941 58.1863 242.941 58.1099V56.6546C242.941 56.5781 243.003 56.5165 243.08 56.5165H249.304C249.38 56.5165 249.443 56.5781 249.443 56.6546V58.1099C249.443 58.1863 249.38 58.2488 249.304 58.2488H247.003V62.5696C247.003 62.6469 246.941 62.7085 246.864 62.7085H245.399C245.323 62.7085 245.26 62.6469 245.26 62.5696V58.2488Z" fill="#FFEEEE"/>
<path fill-rule="evenodd" clip-rule="evenodd" d="M258.047 59.0451H261.94C262.004 59.0451 262.056 59.0965 262.056 59.1599V60.3638C262.056 60.427 262.004 60.4784 261.94 60.4784H258.047C257.983 60.4784 257.932 60.427 257.932 60.3638V59.1599C257.932 59.0965 257.983 59.0451 258.047 59.0451Z" fill="#FFEEEE"/>
<path fill-rule="evenodd" clip-rule="evenodd" d="M276.906 62.7085H271.025C270.948 62.7085 270.886 62.6469 270.886 62.5696V56.6546C270.886 56.5781 270.948 56.5165 271.025 56.5165H276.962C277.04 56.5165 277.102 56.5781 277.102 56.6546V58.1099C277.102 58.1863 277.04 58.2488 276.962 58.2488H272.629V58.7928H276.5C276.576 58.7928 276.639 58.8552 276.639 58.9317V60.387C276.639 60.4634 276.576 60.5251 276.5 60.5251H272.629V60.9762H276.906C276.983 60.9762 277.045 61.0387 277.045 61.1151V62.5696C277.045 62.6469 276.983 62.7085 276.906 62.7085Z" fill="#FFEEEE"/>
<path fill-rule="evenodd" clip-rule="evenodd" d="M228.99 59.2563V62.5696C228.99 62.6469 228.927 62.7085 228.85 62.7085H227.386C227.309 62.7085 227.246 62.6469 227.246 62.5696V56.6546C227.246 56.5781 227.309 56.5165 227.386 56.5165H228.85C228.901 56.5165 228.946 56.5436 228.97 56.5839L232.563 60.1742V56.6546C232.563 56.5781 232.625 56.5165 232.702 56.5165H234.166C234.244 56.5165 234.306 56.5781 234.306 56.6546V62.5696C234.306 62.6469 234.244 62.7085 234.166 62.7085H232.702C232.641 62.7085 232.589 62.6699 232.571 62.6156L228.99 59.2563Z" fill="#FFEEEE"/>
<path fill-rule="evenodd" clip-rule="evenodd" d="M304.149 62.7003C304.134 62.706 304.118 62.7085 304.101 62.7085H302.637C302.56 62.7085 302.498 62.6469 302.498 62.5696V56.6546C302.498 56.5781 302.56 56.5165 302.637 56.5165H304.101C304.118 56.5165 304.134 56.5189 304.149 56.5247C304.177 56.5189 304.207 56.5165 304.237 56.5165H309.099C309.354 56.5165 309.562 56.7219 309.562 56.9767V62.2483C309.562 62.5023 309.354 62.7085 309.099 62.7085H304.237C304.207 62.7085 304.177 62.706 304.149 62.7003ZM304.241 61.3797H308.02V57.8798H304.241V61.3797Z" fill="#FFEEEE"/>
<path fill-rule="evenodd" clip-rule="evenodd" d="M158.63 56.5161L154.538 62.7087H129.096L133.165 56.5161H158.63ZM164.065 56.5792L159.945 62.7087H156.668L161.144 56.5792H164.065ZM169.171 56.5792L165.052 62.7087H161.774L166.251 56.5792H169.171ZM174.499 56.5792L170.379 62.7087H167.101L171.578 56.5792H174.499Z" fill="#33BBCC"/>
<path fill-rule="evenodd" clip-rule="evenodd" d="M363.331 56.5792L358.994 62.7718H332.034L336.345 56.5792H363.331ZM323.791 56.5792L319.671 62.7087H316.393L320.871 56.5792H323.791ZM328.898 56.5792L324.778 62.7087H321.501L325.977 56.5792H328.898ZM334.225 56.5792L330.105 62.7087H326.827L331.304 56.5792H334.225Z" fill="#33BBCC"/>
<path fill-rule="evenodd" clip-rule="evenodd" d="M107.158 58.9547L110.538 57.2387L117.041 20.582L107.158 58.9547Z" fill="black"/>
<path fill-rule="evenodd" clip-rule="evenodd" d="M109.994 59.3613L108.376 68.2407L104.821 69.1752L106.589 61.1557L109.994 59.3613Z" fill="#33BBCC"/>
</svg>
